<svg width="40" height="40" viewBox="0 0 40 40" fill="none" xmlns="http://www.w3.org/2000/svg">
<rect width="40" height="40" rx="12" fill="#DBEAFE"/>
<path d="M28.3332 20H26.2665C25.9023 19.9992 25.5479 20.1178 25.2574 20.3375C24.967 20.5572 24.7565 20.866 24.6582 21.2167L22.6998 28.1833C22.6872 28.2266 22.6609 28.2646 22.6248 28.2917C22.5888 28.3187 22.5449 28.3333 22.4998 28.3333C22.4548 28.3333 22.4109 28.3187 22.3748 28.2917C22.3388 28.2646 22.3125 28.2266 22.2998 28.1833L17.6998 11.8167C17.6872 11.7734 17.6609 11.7354 17.6248 11.7083C17.5888 11.6813 17.5449 11.6667 17.4998 11.6667C17.4548 11.6667 17.4109 11.6813 17.3748 11.7083C17.3388 11.7354 17.3125 11.7734 17.2998 11.8167L15.3415 18.7833C15.2436 19.1326 15.0343 19.4404 14.7456 19.66C14.4568 19.8796 14.1043 19.999 13.7415 20H11.6665" stroke="#2B7FFF" stroke-width="1.66667" stroke-linecap="round" stroke-linejoin="round"/>
</svg>
