<svg width="40" height="40" viewBox="0 0 40 40" fill="none" xmlns="http://www.w3.org/2000/svg">
<rect width="40" height="40" rx="12" fill="#DBEAFE"/>
<path d="M28.3337 20H26.267C25.9028 19.9992 25.5484 20.1177 25.2579 20.3375C24.9675 20.5572 24.757 20.866 24.6587 21.2167L22.7003 28.1833C22.6877 28.2266 22.6614 28.2646 22.6253 28.2917C22.5893 28.3187 22.5454 28.3333 22.5003 28.3333C22.4552 28.3333 22.4114 28.3187 22.3753 28.2917C22.3393 28.2646 22.3129 28.2266 22.3003 28.1833L17.7003 11.8167C17.6877 11.7734 17.6614 11.7354 17.6253 11.7083C17.5893 11.6813 17.5454 11.6667 17.5003 11.6667C17.4552 11.6667 17.4114 11.6813 17.3753 11.7083C17.3393 11.7354 17.3129 11.7734 17.3003 11.8167L15.342 18.7833C15.244 19.1326 15.0348 19.4404 14.746 19.66C14.4573 19.8796 14.1048 19.999 13.742 20H11.667" stroke="#155DFC" stroke-width="1.66667" stroke-linecap="round" stroke-linejoin="round"/>
</svg>
