<svg width="48" height="48" viewBox="0 0 48 48" fill="none" xmlns="http://www.w3.org/2000/svg">
<rect width="48" height="48" rx="12" fill="#FFEDD4"/>
<path d="M24 28H16C15.4696 28 14.9609 27.7893 14.5858 27.4142C14.2107 27.0391 14 26.5304 14 26C14 25.4696 14.2107 24.9609 14.5858 24.5858C14.9609 24.2107 15.4696 24 16 24H32C32.5304 24 33.0391 24.2107 33.4142 24.5858C33.7893 24.9609 34 25.4696 34 26C34 26.5304 33.7893 27.0391 33.4142 27.4142C33.0391 27.7893 32.5304 28 32 28H27.75" stroke="#FF6900" stroke-width="2" stroke-linecap="round" stroke-linejoin="round"/>
<path d="M17 24C16.4696 24 15.9609 23.7893 15.5858 23.4142C15.2107 23.0391 15 22.5304 15 22C15 20.1435 15.9482 18.363 17.636 17.0503C19.3239 15.7375 21.6131 15 24 15C26.3869 15 28.6761 15.7375 30.364 17.0503C32.0518 18.363 33 20.1435 33 22C33 22.5304 32.7893 23.0391 32.4142 23.4142C32.0391 23.7893 31.5304 24 31 24" stroke="#FF6900" stroke-width="2" stroke-linecap="round" stroke-linejoin="round"/>
<path d="M17 28C16.4696 28 15.9609 28.2107 15.5858 28.5858C15.2107 28.9609 15 29.4696 15 30C15 30.7956 15.3161 31.5587 15.8787 32.1213C16.4413 32.6839 17.2044 33 18 33H30C30.7956 33 31.5587 32.6839 32.1213 32.1213C32.6839 31.5587 33 30.7956 33 30C33 29.4696 32.7893 28.9609 32.4142 28.5858C32.0391 28.2107 31.5304 28 31 28" stroke="#FF6900" stroke-width="2" stroke-linecap="round" stroke-linejoin="round"/>
<path d="M18.6699 24L24.7999 28.6C25.2243 28.9183 25.7577 29.0549 26.2828 28.9799C26.5428 28.9428 26.7929 28.8548 27.0189 28.7209C27.2449 28.5871 27.4423 28.4101 27.5999 28.2L30.7499 24" stroke="#FF6900" stroke-width="2" stroke-linecap="round" stroke-linejoin="round"/>
</svg>
