<svg width="48" height="48" viewBox="0 0 48 48" fill="none" xmlns="http://www.w3.org/2000/svg">
<rect width="48" height="48" rx="12" fill="#FFEDD4"/>
<path d="M24 15C24.6667 17.6667 26 19.8333 28 21.5C30 23.1667 31 25 31 27C31 28.8565 30.2625 30.637 28.9497 31.9497C27.637 33.2625 25.8565 34 24 34C22.1435 34 20.363 33.2625 19.0503 31.9497C17.7375 30.637 17 28.8565 17 27C17 25.9181 17.3509 24.8655 18 24C18 24.663 18.2634 25.2989 18.7322 25.7678C19.2011 26.2366 19.837 26.5 20.5 26.5C21.163 26.5 21.7989 26.2366 22.2678 25.7678C22.7366 25.2989 23 24.663 23 24C23 22 21.5 21 21.5 19C21.5 17.6667 22.3333 16.3333 24 15Z" stroke="#FF6900" stroke-width="2" stroke-linecap="round" stroke-linejoin="round"/>
</svg>
