<svg width="32" height="32" viewBox="0 0 32 32" fill="none" xmlns="http://www.w3.org/2000/svg">
<path d="M14.667 15.3333V19.3333" stroke="#FF6467" stroke-width="1.33333" stroke-linecap="round" stroke-linejoin="round"/>
<path d="M17.333 15.3333V19.3333" stroke="#FF6467" stroke-width="1.33333" stroke-linecap="round" stroke-linejoin="round"/>
<path d="M20.6663 12V21.3333C20.6663 21.687 20.5259 22.0261 20.2758 22.2761C20.0258 22.5262 19.6866 22.6667 19.333 22.6667H12.6663C12.3127 22.6667 11.9736 22.5262 11.7235 22.2761C11.4735 22.0261 11.333 21.687 11.333 21.3333V12" stroke="#FF6467" stroke-width="1.33333" stroke-linecap="round" stroke-linejoin="round"/>
<path d="M10 12H22" stroke="#FF6467" stroke-width="1.33333" stroke-linecap="round" stroke-linejoin="round"/>
<path d="M13.333 12V10.6667C13.333 10.313 13.4735 9.9739 13.7235 9.72386C13.9736 9.47381 14.3127 9.33333 14.6663 9.33333H17.333C17.6866 9.33333 18.0258 9.47381 18.2758 9.72386C18.5259 9.9739 18.6663 10.313 18.6663 10.6667V12" stroke="#FF6467" stroke-width="1.33333" stroke-linecap="round" stroke-linejoin="round"/>
</svg>
