<svg width="40" height="40" viewBox="0 0 40 40" fill="none" xmlns="http://www.w3.org/2000/svg">
<rect width="40" height="40" rx="12" fill="#E0E7FF"/>
<path d="M27.4876 20.405C27.4095 21.8518 26.914 23.245 26.061 24.4162C25.208 25.5874 24.034 26.4864 22.681 27.0046C21.3279 27.5228 19.8537 27.638 18.4366 27.3363C17.0195 27.0345 15.7201 26.3288 14.6955 25.3043C13.6709 24.2798 12.965 22.9805 12.6631 21.5634C12.3613 20.1463 12.4763 18.6721 12.9944 17.319C13.5124 15.9659 14.4113 14.7918 15.5824 13.9387C16.7535 13.0856 18.1467 12.5899 19.5935 12.5117C19.931 12.4933 20.1076 12.895 19.9285 13.1808C19.3292 14.1396 19.0726 15.2732 19.2005 16.3966C19.3285 17.52 19.8334 18.5669 20.6329 19.3664C21.4324 20.1659 22.4793 20.6708 23.6027 20.7988C24.7261 20.9267 25.8597 20.6701 26.8185 20.0708C27.1051 19.8917 27.506 20.0675 27.4876 20.405Z" stroke="#4F39F6" stroke-width="1.66667" stroke-linecap="round" stroke-linejoin="round"/>
</svg>
