<svg width="28" height="28" viewBox="0 0 28 28" fill="none" xmlns="http://www.w3.org/2000/svg">
<rect width="28" height="28" rx="8" fill="#1D293D"/>
<path d="M20.1999 16.2C20.349 16.3486 20.4674 16.5253 20.5481 16.7197C20.6289 16.9142 20.6705 17.1227 20.6705 17.3333C20.6705 17.5439 20.6289 17.7524 20.5481 17.9469C20.4674 18.1414 20.349 18.318 20.1999 18.4667L18.4665 20.2C18.3179 20.3492 18.1413 20.4675 17.9468 20.5483C17.7523 20.629 17.5438 20.6706 17.3332 20.6706C17.1226 20.6706 16.9141 20.629 16.7196 20.5483C16.5251 20.4675 16.3485 20.3492 16.1999 20.2L7.79987 11.8C7.50024 11.4989 7.33203 11.0914 7.33203 10.6667C7.33203 10.2419 7.50024 9.83441 7.79987 9.53332L9.5332 7.79999C9.83428 7.50036 10.2418 7.33215 10.6665 7.33215C11.0913 7.33215 11.4988 7.50036 11.7999 7.79999L20.1999 16.2Z" stroke="#62748E" stroke-width="1.33333" stroke-linecap="round" stroke-linejoin="round"/>
<path d="M15.6665 14.3333L16.9998 13" stroke="#62748E" stroke-width="1.33333" stroke-linecap="round" stroke-linejoin="round"/>
<path d="M13.6665 12.3333L14.9998 11" stroke="#62748E" stroke-width="1.33333" stroke-linecap="round" stroke-linejoin="round"/>
<path d="M11.6665 10.3333L12.9998 9" stroke="#62748E" stroke-width="1.33333" stroke-linecap="round" stroke-linejoin="round"/>
<path d="M17.6665 16.3333L18.9998 15" stroke="#62748E" stroke-width="1.33333" stroke-linecap="round" stroke-linejoin="round"/>
</svg>
