<svg width="40" height="40" viewBox="0 0 40 40" fill="none" xmlns="http://www.w3.org/2000/svg">
<rect width="40" height="40" rx="12" fill="#FCE7F3"/>
<path d="M19.9998 11.6667C18.3517 11.6667 16.7405 12.1554 15.3701 13.0711C13.9997 13.9868 12.9316 15.2883 12.3008 16.811C11.6701 18.3337 11.5051 20.0092 11.8266 21.6258C12.1482 23.2423 12.9418 24.7271 14.1073 25.8926C15.2727 27.058 16.7576 27.8517 18.3741 28.1732C19.9906 28.4948 21.6662 28.3297 23.1889 27.699C24.7116 27.0683 26.0131 26.0002 26.9288 24.6297C27.8444 23.2593 28.3332 21.6482 28.3332 20C27.754 20.1783 27.1372 20.1954 26.5491 20.0494C25.9609 19.9034 25.4237 19.5998 24.9952 19.1713C24.5667 18.7428 24.2631 18.2056 24.1171 17.6174C23.9711 17.0293 23.9882 16.4125 24.1665 15.8333C23.5873 16.0117 22.9705 16.0287 22.3824 15.8827C21.7943 15.7367 21.257 15.4331 20.8285 15.0046C20.4 14.5761 20.0965 14.0389 19.9504 13.4508C19.8044 12.8626 19.8215 12.2458 19.9998 11.6667Z" stroke="#E60076" stroke-width="1.66667" stroke-linecap="round" stroke-linejoin="round"/>
<path d="M17.0835 17.0833V17.0917" stroke="#E60076" stroke-width="1.66667" stroke-linecap="round" stroke-linejoin="round"/>
<path d="M23.3335 22.9167V22.925" stroke="#E60076" stroke-width="1.66667" stroke-linecap="round" stroke-linejoin="round"/>
<path d="M20 20V20.0083" stroke="#E60076" stroke-width="1.66667" stroke-linecap="round" stroke-linejoin="round"/>
<path d="M19.1665 24.1667V24.175" stroke="#E60076" stroke-width="1.66667" stroke-linecap="round" stroke-linejoin="round"/>
<path d="M15.8335 21.6667V21.675" stroke="#E60076" stroke-width="1.66667" stroke-linecap="round" stroke-linejoin="round"/>
</svg>
