<svg width="40" height="40" viewBox="0 0 40 40" fill="none" xmlns="http://www.w3.org/2000/svg">
<rect width="40" height="40" rx="12" fill="#F3E8FF"/>
<path d="M13.3332 21.6667C13.1755 21.6672 13.0209 21.623 12.8874 21.5391C12.7538 21.4553 12.6468 21.3353 12.5787 21.193C12.5106 21.0508 12.4843 20.8922 12.5028 20.7355C12.5213 20.5789 12.5839 20.4308 12.6832 20.3083L20.9332 11.8083C20.9951 11.7369 21.0795 11.6886 21.1724 11.6714C21.2653 11.6543 21.3613 11.6692 21.4447 11.7138C21.528 11.7583 21.5937 11.8299 21.631 11.9168C21.6683 12.0036 21.675 12.1005 21.6499 12.1917L20.0499 17.2083C20.0027 17.3346 19.9869 17.4704 20.0037 17.6042C20.0206 17.7379 20.0696 17.8656 20.1467 17.9762C20.2237 18.0868 20.3264 18.1771 20.446 18.2393C20.5656 18.3015 20.6984 18.3338 20.8332 18.3333H26.6666C26.8243 18.3328 26.9789 18.377 27.1124 18.4609C27.246 18.5447 27.3531 18.6647 27.4211 18.807C27.4892 18.9492 27.5155 19.1078 27.497 19.2645C27.4785 19.4211 27.4159 19.5692 27.3166 19.6917L19.0666 28.1917C19.0047 28.2631 18.9204 28.3114 18.8274 28.3286C18.7345 28.3457 18.6385 28.3308 18.5551 28.2862C18.4718 28.2417 18.4061 28.1701 18.3688 28.0832C18.3315 27.9964 18.3248 27.8995 18.3499 27.8083L19.9499 22.7917C19.9971 22.6654 20.0129 22.5296 19.9961 22.3958C19.9792 22.2621 19.9302 22.1344 19.8532 22.0238C19.7761 21.9132 19.6734 21.8229 19.5538 21.7607C19.4343 21.6985 19.3014 21.6662 19.1666 21.6667H13.3332Z" stroke="#AD46FF" stroke-width="1.66667" stroke-linecap="round" stroke-linejoin="round"/>
</svg>
